<?xml version="1.0" encoding="UTF-8"?>
<svg version="1.1" xmlns="http://www.w3.org/2000/svg" width="420" height="420">
<path d="M0 0 C138.6 0 277.2 0 420 0 C420 138.6 420 277.2 420 420 C281.4 420 142.8 420 0 420 C0 281.4 0 142.8 0 0 Z " fill="#F0F0F0" transform="translate(0,0)"/>
<path d="M0 0 C23.43 0 46.86 0 71 0 C71 23.1 71 46.2 71 70 C93.77 70 116.54 70 140 70 C140 46.9 140 23.8 140 0 C163.43 0 186.86 0 211 0 C211 23.1 211 46.2 211 70 C233.77 70 256.54 70 280 70 C280 46.9 280 23.8 280 0 C303.43 0 326.86 0 351 0 C351 46.53 351 93.06 351 141 C304.8 141 258.6 141 211 141 C211 164.1 211 187.2 211 211 C187.57 211 164.14 211 140 211 C140 187.9 140 164.8 140 141 C93.8 141 47.6 141 0 141 C0 94.47 0 47.94 0 0 Z " fill="#CD8E7A" transform="translate(35,35)"/>
<path d="M0 0 C23.43 0 46.86 0 71 0 C71 23.43 71 46.86 71 71 C47.57 71 24.14 71 0 71 C0 47.57 0 24.14 0 0 Z " fill="#CD8E7A" transform="translate(175,315)"/>
<path d="M0 0 C23.43 0 46.86 0 71 0 C71 23.43 71 46.86 71 71 C47.57 71 24.14 71 0 71 C0 47.57 0 24.14 0 0 Z " fill="#CD8E7A" transform="translate(315,245)"/>
<path d="M0 0 C23.43 0 46.86 0 71 0 C71 23.43 71 46.86 71 71 C47.57 71 24.14 71 0 71 C0 47.57 0 24.14 0 0 Z " fill="#CD8E7A" transform="translate(35,245)"/>
</svg>
